<?xml version="1.0" standalone="no"?><!DOCTYPE svg PUBLIC "-//W3C//DTD SVG 1.1//EN" "http://www.w3.org/Graphics/SVG/1.1/DTD/svg11.dtd"><svg class="icon" width="200px" height="200.00px" viewBox="0 0 1024 1024" version="1.1" xmlns="http://www.w3.org/2000/svg"><path d="M512 0a512 512 0 1 1 0 1024A512 512 0 0 1 512 0z m0 85.333333a426.666667 426.666667 0 1 0 0 853.333334A426.666667 426.666667 0 0 0 512 85.333333z m0 469.333334c95.402667 0 183.381333 45.056 239.36 120.064a42.666667 42.666667 0 1 1-68.266667 51.029333A212.906667 212.906667 0 0 0 512 640c-67.669333 0-129.962667 31.573333-170.069333 84.48a42.666667 42.666667 0 1 1-68.010667-51.541333A298.24 298.24 0 0 1 512 554.666667z m-213.333333-256a85.333333 85.333333 0 1 1 0 170.666666 85.333333 85.333333 0 0 1 0-170.666666z m424.021333 0a85.333333 85.333333 0 1 1 0 170.666666 85.333333 85.333333 0 0 1 0-170.666666z" fill="#FF4D4F" /></svg>