<?xml version="1.0" standalone="no"?><!DOCTYPE svg PUBLIC "-//W3C//DTD SVG 1.1//EN" "http://www.w3.org/Graphics/SVG/1.1/DTD/svg11.dtd"><svg class="icon" width="200px" height="200.00px" viewBox="0 0 1024 1024" version="1.1" xmlns="http://www.w3.org/2000/svg"><path d="M512 0a512 512 0 1 1 0 1024A512 512 0 0 1 512 0z m0 85.333333a426.666667 426.666667 0 1 0 0 853.333334A426.666667 426.666667 0 0 0 512 85.333333z m189.866667 473.856l7.765333 0.085334a42.666667 42.666667 0 0 1 28.586667 69.632c-55.978667 75.093333-129.877333 113.322667-225.28 113.322666-93.525333 0.085333-169.984-36.949333-226.389334-111.530666a42.666667 42.666667 0 0 1 68.010667-51.541334c40.106667 52.906667 90.709333 77.738667 158.378667 77.738667 67.413333 0.085333 116.736-24.917333 157.013333-79.018667a42.666667 42.666667 0 0 1 39.68-18.602666zM325.12 284.586667c65.877333 0 123.306667 35.242667 150.613333 92.501333 11.349333 23.808-5.546667 51.712-31.146666 51.712-8.789333 0-20.48-5.802667-34.816-17.578667-30.72-33.28-58.965333-50.005333-84.565334-50.005333-25.6 0-52.309333 15.957333-80.042666 47.957333-16.725333 13.141333-29.525333 19.626667-38.314667 19.626667-25.6 0-42.496-27.818667-31.146667-51.712 27.306667-57.173333 83.626667-92.501333 149.418667-92.501333z m375.808-0.170667c65.792 0 122.624 35.413333 149.930667 92.672 11.264 23.808-5.546667 51.712-31.146667 51.712-8.874667 0-20.48-5.802667-34.816-17.578667-30.72-33.28-58.965333-50.005333-84.565333-50.005333-25.6 0-52.309333 15.957333-80.042667 47.957333-16.725333 13.141333-29.525333 19.626667-38.4 19.626667-25.6 0-42.410667-27.818667-31.061333-51.712 27.306667-57.173333 84.309333-92.672 150.101333-92.672z" fill="#00CA86" /></svg>