<?xml version="1.0" standalone="no"?><!DOCTYPE svg PUBLIC "-//W3C//DTD SVG 1.1//EN" "http://www.w3.org/Graphics/SVG/1.1/DTD/svg11.dtd"><svg class="icon" width="200px" height="200.00px" viewBox="0 0 1024 1024" version="1.1" xmlns="http://www.w3.org/2000/svg"><path d="M512 0a512 512 0 1 1 0 1024A512 512 0 0 1 512 0z m0 85.333333a426.666667 426.666667 0 1 0 0 853.333334A426.666667 426.666667 0 0 0 512 85.333333z m128 554.666667a42.666667 42.666667 0 1 1 0 85.333333h-256a42.666667 42.666667 0 0 1 0-85.333333h256z m-341.333333-341.333333a85.333333 85.333333 0 1 1 0 170.666666 85.333333 85.333333 0 0 1 0-170.666666z m424.021333 0a85.333333 85.333333 0 1 1 0 170.666666 85.333333 85.333333 0 0 1 0-170.666666z" fill="#EF3F26" /></svg>